<svg xmlns="http://www.w3.org/2000/svg" width="48" height="24" viewBox="0 0 48 24"><path fill="#FAB400" d="M45.13 8.978l-5.508-.52a.958.958 0 0 1-.79-.583l-1.97-4.783c-.317-.79-1.44-.79-1.752 0l-1.957 4.783a.938.938 0 0 1-.79.584l-5.51.518c-.82.078-1.15 1.106-.535 1.66l4.147 3.645c.27.232.38.582.302.93l-1.245 5.11c-.19.808.678 1.47 1.405 1.042l4.592-2.697a.948.948 0 0 1 .96 0l4.592 2.697a.948.948 0 0 0 1.405-1.04l-1.23-5.112a.944.944 0 0 1 .302-.932l4.146-3.645c.602-.55.254-1.578-.566-1.657zM11.986 3.593l1.93 4.68a1.97 1.97 0 0 0 1.613 1.183l5.433.494-4.076 3.583a1.967 1.967 0 0 0-.612 1.916l1.23 5.012-4.518-2.654a1.942 1.942 0 0 0-1.972 0l-4.49 2.638 1.22-5.01c.16-.707-.08-1.44-.618-1.9l-4.06-3.57 5.388-.508c.73-.066 1.37-.544 1.625-1.2l1.906-4.665m0-1.093c-.36 0-.72.197-.875.592L9.155 7.875a.94.94 0 0 1-.79.584l-5.51.518c-.82.078-1.15 1.106-.535 1.66l4.146 3.645c.27.232.38.582.302.93l-1.245 5.11a.957.957 0 0 0 .925 1.177c.16 0 .323-.042.48-.135l4.592-2.697a.949.949 0 0 1 .96 0l4.593 2.697c.16.094.325.135.485.135a.951.951 0 0 0 .92-1.175l-1.23-5.112a.944.944 0 0 1 .302-.932l4.147-3.645c.602-.55.254-1.578-.566-1.657l-5.507-.52a.958.958 0 0 1-.79-.583l-1.97-4.783a.934.934 0 0 0-.878-.592z"/></svg>